<?xml version="1.0" encoding="UTF-8"?>
<svg width="69px" height="77px" viewBox="0 0 69 77" version="1.1" xmlns="http://www.w3.org/2000/svg" xmlns:xlink="http://www.w3.org/1999/xlink">
    <!-- Generator: Sketch 42 (36781) - http://www.bohemiancoding.com/sketch -->
    <title>Cosmetic Icon</title>
    <desc>Created with Sketch.</desc>
    <defs></defs>
    <g id="Page-1" stroke="none" stroke-width="1" fill="none" fill-rule="evenodd">
        <g id="Home-Page" transform="translate(-193.000000, -687.000000)">
            <g id="Clinic-Services" transform="translate(0.000000, 500.000000)">
                <g id="Cosmetic-Icon" transform="translate(194.000000, 187.000000)">
                    <g id="Group-2" transform="translate(8.000000, 14.000000)">
                        <path d="M32.4302913,45.2108637 C32.4302913,40.4276466 32.1545455,36.6552052 31.3407236,33.3582933 C30.1653412,28.5966468 27.9493706,25.6638707 24.3655475,25.3391029 C22.0539159,25.1296217 20.340519,26.5029724 19.2422679,28.984573 C18.4121574,30.8602848 17.9113805,33.3750527 17.6548303,36.4355339 C17.4484379,38.8976639 17.4167715,41.1977944 17.4703511,44.3506036 C17.4711623,44.3983397 17.4830542,45.0750286 17.4857581,45.2459086 C17.4894936,45.481985 17.4916662,45.6635021 17.4923677,45.8130202 C17.3649323,46.5289236 17.1944525,46.9962939 17.0211027,47.2616512 C15.7062989,45.0811642 14.8348285,42.5367281 14.3242017,39.6177914 C13.7907642,36.5684605 13.6905027,33.9612539 13.7471728,29.1218727 C13.7603832,27.9937594 13.7636567,27.6420462 13.7636567,27.1273755 C13.7636567,24.5857799 13.3073065,21.9447834 12.5483797,19.3463241 C12.2838946,18.440764 12.0003766,17.6040488 11.7161551,16.8548193 C11.6159903,16.5907776 11.5225729,16.3558442 11.4381827,16.1523799 C11.4081413,16.0799503 11.3812181,16.0162924 11.3576978,15.9617026 C11.1624639,15.3763066 10.9969204,14.8236558 10.8540938,14.2886816 C9.93254463,15.1153552 8.54738371,14.9152687 8.54738371,14.9152687 C8.70728661,15.5142039 8.89256033,16.1307668 9.10366997,16.7651986 L9.14673855,16.8761211 C9.18597314,16.9667117 9.20860723,17.0202283 9.234389,17.082388 C9.30949356,17.2634646 9.39379884,17.4754821 9.48502781,17.7159686 C9.74764538,18.4082483 10.0109665,19.1853588 10.2568646,20.0272794 C10.9561754,22.421622 11.3747678,24.844106 11.3747678,27.1273755 C11.3747678,27.6287247 11.3715355,27.9760071 11.3584505,29.0934122 C11.3000903,34.0771211 11.4046102,36.7950612 11.971657,40.0365162 C12.5897561,43.5698053 13.7068064,46.6486703 15.4657133,49.278205 L15.6533479,49.5587154 L15.9583356,49.6996648 C16.0377306,49.736357 16.1384224,49.7736168 16.2597146,49.8057078 C16.9669198,49.9928168 17.767777,49.864981 18.4650835,49.2369908 C19.1552876,48.6153968 19.6183851,47.5896003 19.8648637,46.1159808 L19.8815087,45.9155441 C19.8815087,45.7319279 19.879162,45.5120192 19.8743428,45.2074537 C19.871599,45.0340542 19.8596681,44.3551484 19.8588891,44.309304 C19.8065965,41.2322289 19.837339,38.9992102 20.035225,36.6385561 C20.529507,30.7420863 21.9469373,27.5392706 24.1517902,27.7390755 C28.4382594,28.1275175 30.0414024,34.6220846 30.0414024,45.2108637 C30.0414024,47.1006373 30.3334111,48.2779887 31.1448139,48.8855165 C32.0899189,49.5931521 33.0788826,49.2513151 34.0143825,48.4160574 C34.3727614,48.0960801 34.7324025,47.6926994 35.0963073,47.2216505 C35.381949,46.8519076 35.6548871,46.4602876 35.9078027,46.0691103 C36.0600227,45.8336758 36.1733876,45.6479998 36.2389167,45.5357065 C36.3658465,45.2979803 36.5139983,44.9447424 36.6913385,44.4051734 C36.9696517,43.5583879 37.243756,42.4718013 37.4969513,41.1180933 C37.9102736,38.9082675 38.2308641,36.183284 38.4252738,32.8890449 C38.5896254,30.1041352 38.61019,28.3085686 38.561361,25.8419192 C38.5306655,24.2913035 38.5288606,23.9018806 38.5640767,23.2683338 C38.6403149,21.896789 38.9272463,20.5469495 39.6720305,18.2125329 C39.6720305,18.2125329 38.2587905,18.4113752 37.3979971,17.4743553 C36.5957643,19.9888359 36.2680263,21.5306459 36.1789339,23.1334409 C36.1389393,23.8529532 36.1408704,24.2695783 36.1729482,25.8900244 C36.220611,28.2977596 36.2007448,30.032337 36.0406062,32.7458583 C35.8519977,35.9417967 35.5432725,38.5659272 35.1494749,40.6713645 C34.9154463,41.9225973 34.6675249,42.9053916 34.4238124,43.6469022 C34.2879373,44.060311 34.1924771,44.2879163 34.1557219,44.3574057 C34.1321879,44.3956496 34.0376626,44.550469 33.9068363,44.7528143 C33.688008,45.0912699 33.4524311,45.4292828 33.2119793,45.7405306 C32.9643807,46.0610294 32.7277183,46.331565 32.5155833,46.5336553 C32.4608607,46.2022987 32.4302913,45.7609329 32.4302913,45.2108637 Z M16.9341481,1.10204273 C16.2114492,1.04151785 15.5828046,1.00247317 15.0505009,0.980676092 C14.7249302,0.967344443 14.5002705,0.962794981 14.378806,0.962794981 C12.5276533,0.962794981 10.2203375,2.25934513 8.93481346,4.5990022 C8.55029475,5.29882725 8.25591357,6.082838 8.06033236,6.94948839 C8.06033236,6.94948839 8.93481346,6.65672073 10.3896339,7.48432459 C10.5357521,6.8368521 10.7500296,6.26617765 11.0242597,5.7670782 C11.8776965,4.21382104 13.3750136,3.37243354 14.378806,3.37243354 C14.468129,3.37243354 14.6604856,3.37632885 14.9536015,3.38833152 C15.4524417,3.40875831 16.0474938,3.44571659 16.7364854,3.50341853 C18.7180281,3.66936957 21.0480591,3.96884373 23.7084275,4.43554652 L24.0124328,4.48887752 L24.3040078,4.38701193 C29.0408431,2.73213571 32.6123725,2.65130482 35.1561584,3.67452378 C36.0444277,4.0318235 36.7483847,4.50600257 37.2688156,5.03471772 C37.5953143,5.36641365 37.80659,5.68921493 37.8151257,5.72110812 C37.8251452,5.75854589 37.9278967,6.11953346 37.9676151,6.26681787 C38.0448743,6.5533123 38.1153775,6.84290768 38.1821358,7.15891561 C38.422849,8.298359 38.5636712,9.53762987 38.5600359,10.8945479 C39.5913999,10.3772383 40.9489161,10.9010596 40.9489161,10.9010596 C40.9530341,9.36393616 40.7930445,7.95598668 40.5185679,6.65672073 C40.4420222,6.29438277 40.3610777,5.96189924 40.2727459,5.63434518 C40.2269596,5.46455951 40.1250516,5.10653527 40.1214531,5.09308962 C39.8071142,3.91857455 38.2306995,2.31706634 36.041033,1.43628927 C32.9828875,0.206173015 28.9249134,0.27370227 23.8155791,2.00899609 C21.2092553,1.55975834 18.9099924,1.26751654 16.9341481,1.10204273 Z" id="Path-2" fill="#979797" fill-rule="nonzero"></path>
                        <g id="Group" transform="translate(0.313253, 4.939759)" fill="#F86624">
                            <path d="M4.80708993,8.16236769 C4.15923206,7.93047275 3.63610124,7.4328467 3.36652642,6.79943744 L0,5.95638827 L3.24176486,5.21347881 C3.45222002,4.36748125 4.09271071,3.69361792 4.91523594,3.44204393 L5.74768255,0 L6.60722489,3.53824736 C7.23771296,3.81303934 7.73180297,4.34591223 7.95862621,5.00486058 L11.2621127,5.86004405 L7.86836011,6.86107374 C7.62226899,7.39833697 7.19156817,7.83192729 6.65832826,8.07906124 L5.65339776,11.6402837 L4.80708993,8.16236769 Z" id="Combined-Shape"></path>
                        </g>
                        <g id="Group-Copy" transform="translate(22.750000, 13.718206)" fill="#F86624">
                            <path d="M4.97393653,9.05961309 C4.31945499,8.82534728 3.79097571,8.32263351 3.51864476,7.6827483 L0.117699135,6.83107984 L3.39260765,6.08057491 C3.60521449,5.22592791 4.25225352,4.54517504 5.08318821,4.29102897 L5.92414572,0.813793738 L6.79247599,4.38821597 C7.42941013,4.66581742 7.9285517,5.20413838 8.15769397,5.86982378 L11.4949552,6.73375061 L8.06650499,7.74501478 C7.81789785,8.28777096 7.38279356,8.72579429 6.84410183,8.97545492 L5.82889697,12.5730871 L4.97393653,9.05961309 Z" id="Combined-Shape"></path>
                        </g>
                        <g id="Group-Copy-2" transform="translate(37.458333, 8.326826)" fill="#F86624">
                            <path d="M4.52075565,8.23418167 C3.92590464,8.02126008 3.4455757,7.56434913 3.19805713,6.98276457 L0.106975436,6.20869257 L3.0835034,5.52656698 C3.27673939,4.74978781 3.86482598,4.13105909 4.62005329,3.90006855 L5.38439022,0.739648086 L6.17360595,3.98840074 C6.75250832,4.24070961 7.20617255,4.72998355 7.41443741,5.33501761 L10.447637,6.12023111 L7.33155676,7.03935787 C7.10560049,7.53266294 6.71013904,7.93077747 6.22052811,8.15769125 L5.29781969,11.4275392 L4.52075565,8.23418167 Z" id="Combined-Shape"></path>
                        </g>
                    </g>
                    <path d="M30.7395767,1.50249712 C32.1768433,0.672690873 34.5090866,0.673830428 35.9443794,1.50249712 L64.0815547,17.7475029 C65.5188213,18.5773091 66.6839561,20.5976609 66.6839561,22.2549942 L66.6839561,54.7450058 C66.6839561,56.4046183 65.5168476,58.4238304 64.0815547,59.2524971 L35.9443794,75.4975029 C34.5071128,76.3273091 32.1748695,76.3261696 30.7395767,75.4975029 L2.60240134,59.2524971 C1.16513477,58.4226909 1.687539e-14,56.4023391 1.59872116e-14,54.7450058 L-1.77635684e-15,22.2549942 C-3.55271368e-15,20.5953817 1.16710854,18.5761696 2.60240134,17.7475029 L30.7395767,1.50249712 Z" id="Polygon" stroke="#4A4238" opacity="0.149966033"></path>
                </g>
            </g>
        </g>
    </g>
</svg>