<?xml version="1.0" encoding="UTF-8"?>
<svg width="69px" height="77px" viewBox="0 0 69 77" version="1.1" xmlns="http://www.w3.org/2000/svg" xmlns:xlink="http://www.w3.org/1999/xlink">
    <!-- Generator: Sketch 42 (36781) - http://www.bohemiancoding.com/sketch -->
    <title>Preventative Icon</title>
    <desc>Created with Sketch.</desc>
    <defs></defs>
    <g id="Page-1" stroke="none" stroke-width="1" fill="none" fill-rule="evenodd">
        <g id="Home-Page" transform="translate(-478.000000, -687.000000)">
            <g id="Clinic-Services" transform="translate(0.000000, 500.000000)">
                <g id="Preventative-Icon" transform="translate(479.000000, 188.000000)">
                    <g id="Group-2-Copy" transform="translate(11.000000, 13.000000)">
                        <path d="M29.4302913,45.2108637 C29.4302913,40.4276466 29.1545455,36.6552052 28.3407236,33.3582933 C27.1653412,28.5966468 24.9493706,25.6638707 21.3655475,25.3391029 C19.0539159,25.1296217 17.340519,26.5029724 16.2422679,28.984573 C15.4121574,30.8602848 14.9113805,33.3750527 14.6548303,36.4355339 C14.4484379,38.8976639 14.4167715,41.1977944 14.4703511,44.3506036 C14.4711623,44.3983397 14.4830542,45.0750286 14.4857581,45.2459086 C14.4894936,45.481985 14.4916662,45.6635021 14.4923677,45.8130202 C14.3649323,46.5289236 14.1944525,46.9962939 14.0211027,47.2616512 C12.7062989,45.0811642 11.8348285,42.5367281 11.3242017,39.6177914 C10.7907642,36.5684605 10.6905027,33.9612539 10.7471728,29.1218727 C10.7603832,27.9937594 10.7636567,27.6420462 10.7636567,27.1273755 C10.7636567,24.5857799 10.3073065,21.9447834 9.5483797,19.3463241 C9.28389459,18.440764 9.00037661,17.6040488 8.71615506,16.8548193 C8.61599034,16.5907776 8.52257291,16.3558442 8.43818273,16.1523799 C8.40814134,16.0799503 8.38121813,16.0162924 8.35769779,15.9617026 C8.16246387,15.3763066 7.99692045,14.8236558 7.85409377,14.2886816 C6.93254463,15.1153552 5.54738371,14.9152687 5.54738371,14.9152687 C5.70728661,15.5142039 5.89256033,16.1307668 6.10366997,16.7651986 L6.14673855,16.8761211 C6.18597314,16.9667117 6.20860723,17.0202283 6.234389,17.082388 C6.30949356,17.2634646 6.39379884,17.4754821 6.48502781,17.7159686 C6.74764538,18.4082483 7.01096652,19.1853588 7.25686458,20.0272794 C7.95617543,22.421622 8.37476782,24.844106 8.37476782,27.1273755 C8.37476782,27.6287247 8.37153555,27.9760071 8.35845052,29.0934122 C8.30009033,34.0771211 8.40461018,36.7950612 8.97165704,40.0365162 C9.58975615,43.5698053 10.7068064,46.6486703 12.4657133,49.278205 L12.6533479,49.5587154 L12.9583356,49.6996648 C13.0377306,49.736357 13.1384224,49.7736168 13.2597146,49.8057078 C13.9669198,49.9928168 14.767777,49.864981 15.4650835,49.2369908 C16.1552876,48.6153968 16.6183851,47.5896003 16.8648637,46.1159808 L16.8815087,45.9155441 C16.8815087,45.7319279 16.879162,45.5120192 16.8743428,45.2074537 C16.871599,45.0340542 16.8596681,44.3551484 16.8588891,44.309304 C16.8065965,41.2322289 16.837339,38.9992102 17.035225,36.6385561 C17.529507,30.7420863 18.9469373,27.5392706 21.1517902,27.7390755 C25.4382594,28.1275175 27.0414024,34.6220846 27.0414024,45.2108637 C27.0414024,47.1006373 27.3334111,48.2779887 28.1448139,48.8855165 C29.0899189,49.5931521 30.0788826,49.2513151 31.0143825,48.4160574 C31.3727614,48.0960801 31.7324025,47.6926994 32.0963073,47.2216505 C32.381949,46.8519076 32.6548871,46.4602876 32.9078027,46.0691103 C33.0600227,45.8336758 33.1733876,45.6479998 33.2389167,45.5357065 C33.3658465,45.2979803 33.5139983,44.9447424 33.6913385,44.4051734 C33.9696517,43.5583879 34.243756,42.4718013 34.4969513,41.1180933 C34.9102736,38.9082675 35.2308641,36.183284 35.4252738,32.8890449 C35.5896254,30.1041352 35.61019,28.3085686 35.561361,25.8419192 C35.5306655,24.2913035 35.5288606,23.9018806 35.5640767,23.2683338 C35.6403149,21.896789 35.9272463,20.5469495 36.6720305,18.2125329 C36.6720305,18.2125329 35.2587905,18.4113752 34.3979971,17.4743553 C33.5957643,19.9888359 33.2680263,21.5306459 33.1789339,23.1334409 C33.1389393,23.8529532 33.1408704,24.2695783 33.1729482,25.8900244 C33.220611,28.2977596 33.2007448,30.032337 33.0406062,32.7458583 C32.8519977,35.9417967 32.5432725,38.5659272 32.1494749,40.6713645 C31.9154463,41.9225973 31.6675249,42.9053916 31.4238124,43.6469022 C31.2879373,44.060311 31.1924771,44.2879163 31.1557219,44.3574057 C31.1321879,44.3956496 31.0376626,44.550469 30.9068363,44.7528143 C30.688008,45.0912699 30.4524311,45.4292828 30.2119793,45.7405306 C29.9643807,46.0610294 29.7277183,46.331565 29.5155833,46.5336553 C29.4608607,46.2022987 29.4302913,45.7609329 29.4302913,45.2108637 Z M13.9341481,1.10204273 C13.2114492,1.04151785 12.5828046,1.00247317 12.0505009,0.980676092 C11.7249302,0.967344443 11.5002705,0.962794981 11.378806,0.962794981 C9.52765333,0.962794981 7.22033753,2.25934513 5.93481346,4.5990022 C5.55029475,5.29882725 5.25591357,6.082838 5.06033236,6.94948839 C5.06033236,6.94948839 5.93481346,6.65672073 7.38963388,7.48432459 C7.53575215,6.8368521 7.75002959,6.26617765 8.02425967,5.7670782 C8.87769647,4.21382104 10.3750136,3.37243354 11.378806,3.37243354 C11.468129,3.37243354 11.6604856,3.37632885 11.9536015,3.38833152 C12.4524417,3.40875831 13.0474938,3.44571659 13.7364854,3.50341853 C15.7180281,3.66936957 18.0480591,3.96884373 20.7084275,4.43554652 L21.0124328,4.48887752 L21.3040078,4.38701193 C26.0408431,2.73213571 29.6123725,2.65130482 32.1561584,3.67452378 C33.0444277,4.0318235 33.7483847,4.50600257 34.2688156,5.03471772 C34.5953143,5.36641365 34.80659,5.68921493 34.8151257,5.72110812 C34.8251452,5.75854589 34.9278967,6.11953346 34.9676151,6.26681787 C35.0448743,6.5533123 35.1153775,6.84290768 35.1821358,7.15891561 C35.422849,8.298359 35.5636712,9.53762987 35.5600359,10.8945479 C36.5913999,10.3772383 37.9489161,10.9010596 37.9489161,10.9010596 C37.9530341,9.36393616 37.7930445,7.95598668 37.5185679,6.65672073 C37.4420222,6.29438277 37.3610777,5.96189924 37.2727459,5.63434518 C37.2269596,5.46455951 37.1250516,5.10653527 37.1214531,5.09308962 C36.8071142,3.91857455 35.2306995,2.31706634 33.041033,1.43628927 C29.9828875,0.206173015 25.9249134,0.27370227 20.8155791,2.00899609 C18.2092553,1.55975834 15.9099924,1.26751654 13.9341481,1.10204273 Z" id="Path-2" fill="#979797" fill-rule="nonzero"></path>
                        <g id="Group-3" transform="translate(16.000000, 5.000000)" fill="#F86624">
                            <path d="M12.7059106,17.5637917 C12.440126,17.6595075 12.1678319,17.7415892 11.889872,17.8091931 L11.5596553,19.7930331 C11.540629,19.9073378 11.4328693,20 11.3189913,20 L8.68776109,20 C8.5738724,20 8.46611185,19.9072681 8.44709706,19.7930331 L8.11824185,17.8173723 C7.28875388,17.6194758 6.50925059,17.2927678 5.80204694,16.8595632 C5.79105931,16.8851779 5.77314976,16.907859 5.74823625,16.9256621 L4.10755737,18.0980901 C4.01327808,18.1654621 3.87155838,18.1547866 3.7910345,18.0742627 L1.93047376,16.2137019 C1.8499423,16.1331705 1.83931546,15.9914009 1.9066463,15.8971791 L3.07907431,14.2565002 C3.09654618,14.2320503 3.11870543,14.2143463 3.14371942,14.2033072 C2.71010838,13.4966823 2.38287326,12.7177451 2.1843088,11.8887904 L0.20696691,11.5596553 C0.0926622418,11.540629 1.36044589e-15,11.4328693 1.3674189e-15,11.3189913 L1.52853529e-15,8.68776109 C1.53550896e-15,8.5738724 0.0927319281,8.46611185 0.20696691,8.44709706 L2.1890989,8.11716469 C2.38972186,7.28900647 2.71883875,6.51104475 3.15415439,5.80557468 C3.12485715,5.79509985 3.09893061,5.77602498 3.0790728,5.74823625 L1.90664479,4.10755737 C1.83927287,4.01327808 1.84994838,3.87155838 1.93047225,3.7910345 L3.79103299,1.93047376 C3.87156445,1.8499423 4.01333404,1.83931546 4.10755586,1.9066463 L5.74823473,3.07907431 C5.77863085,3.10079536 5.79860092,3.129761 5.80830039,3.1624499 C6.51272656,2.73183136 7.2887341,2.40681252 8.11430974,2.20940666 C8.11469037,2.20501797 8.11524944,2.2005923 8.11599156,2.19613387 L8.44709492,0.20696691 C8.46612131,0.0926622418 8.57388099,0 8.68775895,0 L11.3189892,0 C11.4328779,0 11.5406384,0.0927319281 11.5596532,0.20696691 L11.8907566,2.19613387 C11.8919513,2.20331147 11.8926721,2.21040373 11.892938,2.21739308 C12.7165712,2.41805805 13.4904161,2.74585237 14.1925086,3.17881182 C14.1998825,3.13944408 14.2211343,3.10434414 14.2564987,3.0790728 L15.8971776,1.90664479 C15.9914569,1.83927287 16.1331766,1.84994838 16.2137004,1.93047225 L18.0742612,3.79103299 C18.1547926,3.87156445 18.1654195,4.01333404 18.0980886,4.10755586 L16.9256606,5.74823473 C16.9000313,5.78410007 16.8643157,5.80544987 16.8242986,5.81253949 C17.2569113,6.51523129 17.5842297,7.28967513 17.7842655,8.11388281 C17.7907179,8.11419337 17.797256,8.11489128 17.8038661,8.11599156 L19.7930331,8.44709492 C19.9073378,8.46612131 20,8.57388099 20,8.68775895 L20,11.3189892 C20,11.4328779 19.9072681,11.5406384 19.7930331,11.5596532 L17.8038661,11.8907566 C17.7988484,11.8915918 17.7938724,11.8921953 17.7889442,11.8925738 C17.7107683,12.2182357 17.6127316,12.5361699 17.4961866,12.8450239 L15.7589345,11.1077717 C15.828961,10.7449849 15.8656331,10.3703151 15.8656331,9.9870801 C15.8656331,6.74044495 13.2337153,4.10852713 9.9870801,4.10852713 C6.74044495,4.10852713 4.10852713,6.74044495 4.10852713,9.9870801 C4.10852713,13.2337153 6.74044495,15.8656331 9.9870801,15.8656331 C10.3088043,15.8656331 10.624492,15.8397883 10.9321805,15.7900617 L12.7059106,17.5637917 Z" id="Combined-Shape"></path>
                            <path d="M8.56297904,6.73498257 C9.01158822,6.54137831 9.50618691,6.43410853 10.0258398,6.43410853 C12.0665819,6.43410853 13.7209302,8.08845687 13.7209302,10.129199 C13.7209302,10.4120873 13.6891409,10.6875508 13.6289398,10.9522122 L17.218759,14.5420314 C17.7142646,14.9039137 18.0361757,15.4892991 18.0361757,16.1498708 C18.0361757,17.2487319 17.1453728,18.1395349 16.0465116,18.1395349 C15.5546193,18.1395349 15.1044177,17.9610357 14.7571474,17.6652782 L14.7357667,17.6866589 L10.7935405,13.7444328 C10.5458835,13.7967634 10.2890762,13.8242894 10.0258398,13.8242894 C7.98509769,13.8242894 6.33074935,12.1699411 6.33074935,10.129199 C6.33074935,9.62908109 6.43010567,9.15216913 6.61015637,8.717125 C6.67334659,8.82837657 6.75243209,8.93310183 6.84735713,9.02802687 L8.47389619,10.6545659 C9.03177817,11.2124479 9.95501557,11.2194776 10.5201153,10.6543778 C11.0891548,10.0853383 11.0852993,9.17315458 10.5203034,8.60815871 L8.89376435,6.98161965 C8.79383834,6.88169364 8.68219071,6.79944052 8.56297904,6.73498257 Z" id="Combined-Shape"></path>
                        </g>
                        <path d="M7.47646304,7.21011423 C7.47646304,7.21011423 6.77897302,10.8028346 8.13928524,15.2771844 C9.49959746,19.7515342 6.30843188,17.4465482 5.67806948,15.2872514 C4.84257484,12.696298 4.22291667,8.90800781 5.39612671,5.88053637 C6.56933675,2.85306493 7.47646304,7.21011423 7.47646304,7.21011423 Z" id="Path-4" fill="#979797"></path>
                    </g>
                    <path d="M30.8991868,0.611978392 C32.3355763,-0.210789219 34.67264,-0.206082931 36.1008132,0.611978392 L64.3991868,16.8213604 C65.8355763,17.644128 67,19.6544954 67,21.3065672 L67,53.6934328 C67,55.3477765 65.82736,57.3605783 64.3991868,58.1786396 L36.1008132,74.3880216 C34.6644237,75.2107892 32.32736,75.2060829 30.8991868,74.3880216 L2.60081317,58.1786396 C1.16442372,57.355872 1.50990331e-14,55.3455046 1.42108547e-14,53.6934328 L-3.55271368e-15,21.3065672 C-4.4408921e-15,19.6522235 1.17263997,17.6394217 2.60081317,16.8213604 L30.8991868,0.611978392 Z" id="Polygon-Copy" stroke="#D5D1CC"></path>
                </g>
            </g>
        </g>
    </g>
</svg>