<?xml version="1.0" encoding="UTF-8"?>
<svg width="68px" height="77px" viewBox="0 0 68 77" version="1.1" xmlns="http://www.w3.org/2000/svg" xmlns:xlink="http://www.w3.org/1999/xlink">
    <!-- Generator: Sketch 42 (36781) - http://www.bohemiancoding.com/sketch -->
    <title>Restorative Icon</title>
    <desc>Created with Sketch.</desc>
    <defs></defs>
    <g id="Page-1" stroke="none" stroke-width="1" fill="none" fill-rule="evenodd">
        <g id="Home-Page" transform="translate(-757.000000, -687.000000)">
            <g id="Clinic-Services" transform="translate(0.000000, 500.000000)">
                <g id="Restorative-Icon" transform="translate(757.000000, 187.000000)">
                    <g id="Group-2-Copy-2" transform="translate(12.000000, 17.000000)">
                        <path d="M29.4302913,45.2108637 C29.4302913,40.4276466 29.1545455,36.6552052 28.3407236,33.3582933 C27.1653412,28.5966468 24.9493706,25.6638707 21.3655475,25.3391029 C19.0539159,25.1296217 17.340519,26.5029724 16.2422679,28.984573 C15.4121574,30.8602848 14.9113805,33.3750527 14.6548303,36.4355339 C14.4484379,38.8976639 14.4167715,41.1977944 14.4703511,44.3506036 C14.4711623,44.3983397 14.4830542,45.0750286 14.4857581,45.2459086 C14.4894936,45.481985 14.4916662,45.6635021 14.4923677,45.8130202 C14.3649323,46.5289236 14.1944525,46.9962939 14.0211027,47.2616512 C12.7062989,45.0811642 11.8348285,42.5367281 11.3242017,39.6177914 C10.7907642,36.5684605 10.6905027,33.9612539 10.7471728,29.1218727 C10.7603832,27.9937594 10.7636567,27.6420462 10.7636567,27.1273755 C10.7636567,24.5857799 10.3073065,21.9447834 9.5483797,19.3463241 C9.28389459,18.440764 9.00037661,17.6040488 8.71615506,16.8548193 C8.61599034,16.5907776 8.52257291,16.3558442 8.43818273,16.1523799 C8.40814134,16.0799503 8.38121813,16.0162924 8.35769779,15.9617026 C8.16246387,15.3763066 7.99692045,14.8236558 7.85409377,14.2886816 C6.93254463,15.1153552 5.54738371,14.9152687 5.54738371,14.9152687 C5.70728661,15.5142039 5.89256033,16.1307668 6.10366997,16.7651986 L6.14673855,16.8761211 C6.18597314,16.9667117 6.20860723,17.0202283 6.234389,17.082388 C6.30949356,17.2634646 6.39379884,17.4754821 6.48502781,17.7159686 C6.74764538,18.4082483 7.01096652,19.1853588 7.25686458,20.0272794 C7.95617543,22.421622 8.37476782,24.844106 8.37476782,27.1273755 C8.37476782,27.6287247 8.37153555,27.9760071 8.35845052,29.0934122 C8.30009033,34.0771211 8.40461018,36.7950612 8.97165704,40.0365162 C9.58975615,43.5698053 10.7068064,46.6486703 12.4657133,49.278205 L12.6533479,49.5587154 L12.9583356,49.6996648 C13.0377306,49.736357 13.1384224,49.7736168 13.2597146,49.8057078 C13.9669198,49.9928168 14.767777,49.864981 15.4650835,49.2369908 C16.1552876,48.6153968 16.6183851,47.5896003 16.8648637,46.1159808 L16.8815087,45.9155441 C16.8815087,45.7319279 16.879162,45.5120192 16.8743428,45.2074537 C16.871599,45.0340542 16.8596681,44.3551484 16.8588891,44.309304 C16.8065965,41.2322289 16.837339,38.9992102 17.035225,36.6385561 C17.529507,30.7420863 18.9469373,27.5392706 21.1517902,27.7390755 C25.4382594,28.1275175 27.0414024,34.6220846 27.0414024,45.2108637 C27.0414024,47.1006373 27.3334111,48.2779887 28.1448139,48.8855165 C29.0899189,49.5931521 30.0788826,49.2513151 31.0143825,48.4160574 C31.3727614,48.0960801 31.7324025,47.6926994 32.0963073,47.2216505 C32.381949,46.8519076 32.6548871,46.4602876 32.9078027,46.0691103 C33.0600227,45.8336758 33.1733876,45.6479998 33.2389167,45.5357065 C33.3658465,45.2979803 33.5139983,44.9447424 33.6913385,44.4051734 C33.9696517,43.5583879 34.243756,42.4718013 34.4969513,41.1180933 C34.9102736,38.9082675 35.2308641,36.183284 35.4252738,32.8890449 C35.5896254,30.1041352 35.61019,28.3085686 35.561361,25.8419192 C35.5306655,24.2913035 35.5288606,23.9018806 35.5640767,23.2683338 C35.6403149,21.896789 35.9272463,20.5469495 36.6720305,18.2125329 C36.6720305,18.2125329 35.2587905,18.4113752 34.3979971,17.4743553 C33.5957643,19.9888359 33.2680263,21.5306459 33.1789339,23.1334409 C33.1389393,23.8529532 33.1408704,24.2695783 33.1729482,25.8900244 C33.220611,28.2977596 33.2007448,30.032337 33.0406062,32.7458583 C32.8519977,35.9417967 32.5432725,38.5659272 32.1494749,40.6713645 C31.9154463,41.9225973 31.6675249,42.9053916 31.4238124,43.6469022 C31.2879373,44.060311 31.1924771,44.2879163 31.1557219,44.3574057 C31.1321879,44.3956496 31.0376626,44.550469 30.9068363,44.7528143 C30.688008,45.0912699 30.4524311,45.4292828 30.2119793,45.7405306 C29.9643807,46.0610294 29.7277183,46.331565 29.5155833,46.5336553 C29.4608607,46.2022987 29.4302913,45.7609329 29.4302913,45.2108637 Z M13.9341481,1.10204273 C13.2114492,1.04151785 12.5828046,1.00247317 12.0505009,0.980676092 C11.7249302,0.967344443 11.5002705,0.962794981 11.378806,0.962794981 C9.52765333,0.962794981 7.22033753,2.25934513 5.93481346,4.5990022 C5.55029475,5.29882725 5.25591357,6.082838 5.06033236,6.94948839 C5.06033236,6.94948839 5.93481346,6.65672073 7.38963388,7.48432459 C7.53575215,6.8368521 7.75002959,6.26617765 8.02425967,5.7670782 C8.87769647,4.21382104 10.3750136,3.37243354 11.378806,3.37243354 C11.468129,3.37243354 11.6604856,3.37632885 11.9536015,3.38833152 C12.4524417,3.40875831 13.0474938,3.44571659 13.7364854,3.50341853 C15.7180281,3.66936957 18.0480591,3.96884373 20.7084275,4.43554652 L21.0124328,4.48887752 L21.3040078,4.38701193 C26.0408431,2.73213571 29.6123725,2.65130482 32.1561584,3.67452378 C33.0444277,4.0318235 33.7483847,4.50600257 34.2688156,5.03471772 C34.5953143,5.36641365 34.80659,5.68921493 34.8151257,5.72110812 C34.8251452,5.75854589 34.9278967,6.11953346 34.9676151,6.26681787 C35.0448743,6.5533123 35.1153775,6.84290768 35.1821358,7.15891561 C35.422849,8.298359 35.5636712,9.53762987 35.5600359,10.8945479 C36.5913999,10.3772383 37.9489161,10.9010596 37.9489161,10.9010596 C37.9530341,9.36393616 37.7930445,7.95598668 37.5185679,6.65672073 C37.4420222,6.29438277 37.3610777,5.96189924 37.2727459,5.63434518 C37.2269596,5.46455951 37.1250516,5.10653527 37.1214531,5.09308962 C36.8071142,3.91857455 35.2306995,2.31706634 33.041033,1.43628927 C29.9828875,0.206173015 25.9249134,0.27370227 20.8155791,2.00899609 C18.2092553,1.55975834 15.9099924,1.26751654 13.9341481,1.10204273 Z" id="Path-2" fill="#979797" fill-rule="nonzero"></path>
                        <path d="M7.47646304,7.21011423 C7.47646304,7.21011423 6.77897302,10.8028346 8.13928524,15.2771844 C9.49959746,19.7515342 6.30843188,17.4465482 5.67806948,15.2872514 C4.84257484,12.696298 4.22291667,8.90800781 5.39612671,5.88053637 C6.56933675,2.85306493 7.47646304,7.21011423 7.47646304,7.21011423 Z" id="Path-4" fill="#979797"></path>
                        <path d="M31.75,15.75 L36,15.75 L36,12.25 L31.75,12.25 L31.75,8 L28.25,8 L28.25,12.25 L24,12.25 L24,15.75 L28.25,15.75 L28.25,20 L31.75,20 L31.75,15.75 Z" id="Combined-Shape" fill="#F86624"></path>
                    </g>
                    <path d="M31.3975987,1.50249712 C32.8348652,0.672690873 35.1671085,0.673830428 36.6024013,1.50249712 L64.7395767,17.7475029 C66.1768433,18.5773091 67.341978,20.5976609 67.341978,22.2549942 L67.341978,54.7450058 C67.341978,56.4046183 66.1748695,58.4238304 64.7395767,59.2524971 L36.6024013,75.4975029 C35.1651348,76.3273091 32.8328915,76.3261696 31.3975987,75.4975029 L3.2604233,59.2524971 C1.82315672,58.4226909 0.658021954,56.4023391 0.658021954,54.7450058 L0.658021954,22.2549942 C0.658021954,20.5953817 1.82513049,18.5761696 3.2604233,17.7475029 L31.3975987,1.50249712 Z" id="Polygon-Copy-2" stroke="#4A4238" opacity="0.149966033"></path>
                </g>
            </g>
        </g>
    </g>
</svg>